<svg width="161" height="34" viewBox="0 0 161 34" fill="none" xmlns="http://www.w3.org/2000/svg">
<circle cx="17" cy="17" r="16" transform="rotate(-90 17 17)" stroke="#FAB500" stroke-width="2"/>
<path d="M32 17C32 25.2843 25.2843 32 17 32C8.71573 32 2 25.2843 2 17C2 8.71573 8.71573 2 17 2C25.2843 2 32 8.71573 32 17Z" fill="#050F28"/>
<path d="M47.6087 6.7524C47.9794 6.02355 49.0206 6.02355 49.3913 6.7524L52.0084 11.8977C52.1537 12.1834 52.4273 12.3822 52.744 12.4321L58.4461 13.3311C59.2539 13.4585 59.5756 14.4487 58.997 15.0265L54.9123 19.1055C54.6854 19.332 54.5809 19.6536 54.6313 19.9702L55.5384 25.6711C55.6669 26.4786 54.8245 27.0907 54.0962 26.7189L48.9546 24.0945C48.6691 23.9488 48.3309 23.9488 48.0454 24.0945L42.9038 26.7189C42.1755 27.0907 41.3331 26.4786 41.4616 25.6711L42.3687 19.9702C42.4191 19.6536 42.3146 19.332 42.0877 19.1055L38.003 15.0265C37.4244 14.4487 37.7461 13.4585 38.5539 13.3311L44.256 12.4321C44.5727 12.3822 44.8463 12.1834 44.9916 11.8977L47.6087 6.7524Z" fill="#FAB500"/>
<path d="M72.6087 6.7524C72.9794 6.02355 74.0206 6.02355 74.3913 6.7524L77.0084 11.8977C77.1537 12.1834 77.4273 12.3822 77.744 12.4321L83.4461 13.3311C84.2539 13.4585 84.5756 14.4487 83.997 15.0265L79.9123 19.1055C79.6854 19.332 79.5809 19.6536 79.6313 19.9702L80.5384 25.6711C80.6669 26.4786 79.8245 27.0907 79.0962 26.7189L73.9546 24.0945C73.6691 23.9488 73.3309 23.9488 73.0454 24.0945L67.9038 26.7189C67.1755 27.0907 66.3331 26.4786 66.4616 25.6711L67.3687 19.9702C67.4191 19.6536 67.3146 19.332 67.0877 19.1055L63.003 15.0265C62.4244 14.4487 62.7461 13.4585 63.5539 13.3311L69.256 12.4321C69.5727 12.3822 69.8463 12.1834 69.9916 11.8977L72.6087 6.7524Z" fill="#FAB500"/>
<path d="M97.6087 6.7524C97.9794 6.02355 99.0206 6.02355 99.3913 6.7524L102.008 11.8977C102.154 12.1834 102.427 12.3822 102.744 12.4321L108.446 13.3311C109.254 13.4585 109.576 14.4487 108.997 15.0265L104.912 19.1055C104.685 19.332 104.581 19.6536 104.631 19.9702L105.538 25.6711C105.667 26.4786 104.825 27.0907 104.096 26.7189L98.9546 24.0945C98.6691 23.9488 98.3309 23.9488 98.0454 24.0945L92.9038 26.7189C92.1755 27.0907 91.3331 26.4786 91.4616 25.6711L92.3687 19.9702C92.4191 19.6536 92.3146 19.332 92.0877 19.1055L88.003 15.0265C87.4244 14.4487 87.7461 13.4585 88.5539 13.3311L94.256 12.4321C94.5727 12.3822 94.8463 12.1834 94.9916 11.8977L97.6087 6.7524Z" fill="#FAB500"/>
<path d="M122.609 6.7524C122.979 6.02355 124.021 6.02355 124.391 6.7524L127.008 11.8977C127.154 12.1834 127.427 12.3822 127.744 12.4321L133.446 13.3311C134.254 13.4585 134.576 14.4487 133.997 15.0265L129.912 19.1055C129.685 19.332 129.581 19.6536 129.631 19.9702L130.538 25.6711C130.667 26.4786 129.825 27.0907 129.096 26.7189L123.955 24.0945C123.669 23.9488 123.331 23.9488 123.045 24.0945L117.904 26.7189C117.175 27.0907 116.333 26.4786 116.462 25.6711L117.369 19.9702C117.419 19.6536 117.315 19.332 117.088 19.1055L113.003 15.0265C112.424 14.4487 112.746 13.4585 113.554 13.3311L119.256 12.4321C119.573 12.3822 119.846 12.1834 119.992 11.8977L122.609 6.7524Z" fill="#FAB500"/>
<path d="M147.609 6.7524C147.979 6.02355 149.021 6.02355 149.391 6.7524L152.008 11.8977C152.154 12.1834 152.427 12.3822 152.744 12.4321L158.446 13.3311C159.254 13.4585 159.576 14.4487 158.997 15.0265L154.912 19.1055C154.685 19.332 154.581 19.6536 154.631 19.9702L155.538 25.6711C155.667 26.4786 154.825 27.0907 154.096 26.7189L148.955 24.0945C148.669 23.9488 148.331 23.9488 148.045 24.0945L142.904 26.7189C142.175 27.0907 141.333 26.4786 141.462 25.6711L142.369 19.9702C142.419 19.6536 142.315 19.332 142.088 19.1055L138.003 15.0265C137.424 14.4487 137.746 13.4585 138.554 13.3311L144.256 12.4321C144.573 12.3822 144.846 12.1834 144.992 11.8977L147.609 6.7524Z" fill="#FAB500"/>
</svg>
