<svg width="35" height="35" viewBox="0 0 61 60" fill="none" xmlns="http://www.w3.org/2000/svg">
<path d="M30.0155 0.45459C17.6782 0.45459 14.07 0.467317 13.3687 0.525499C10.8369 0.735953 9.2614 1.13459 7.54504 1.98914C6.22231 2.64595 5.17913 3.40732 4.14958 4.47459C2.27458 6.42095 1.13822 8.8155 0.726854 11.6619C0.526854 13.0437 0.468672 13.3255 0.456854 20.3837C0.452309 22.7364 0.456854 25.8328 0.456854 29.986C0.456854 42.3132 0.470491 45.9178 0.529581 46.6178C0.734127 49.0814 1.12049 50.6314 1.93867 52.3269C3.50231 55.5723 6.48867 58.0087 10.0069 58.9178C11.225 59.2314 12.5705 59.4041 14.2978 59.486C15.0296 59.5178 22.4887 59.5405 29.9523 59.5405C37.4159 59.5405 44.8796 59.5314 45.5932 59.495C47.5932 59.401 48.7546 59.245 50.0387 58.9132C53.5796 57.9996 56.5114 55.5996 58.1069 52.3087C58.9091 50.6541 59.3159 49.045 59.5 46.71C59.54 46.201 59.5569 38.0841 59.5569 29.9782C59.5569 21.871 59.5387 13.7691 59.4987 13.26C59.3123 10.8873 58.9055 9.29186 58.0773 7.6055C57.3978 6.22504 56.6432 5.19414 55.5478 4.14004C53.5928 2.27277 51.2019 1.13641 48.3528 0.725499C46.9723 0.525953 46.6973 0.466863 39.6337 0.45459H30.0155Z" fill="url(#paint0_radial_170_5)"/>
<path d="M30.0155 0.45459C17.6782 0.45459 14.07 0.467317 13.3687 0.525499C10.8369 0.735953 9.2614 1.13459 7.54504 1.98914C6.22231 2.64595 5.17913 3.40732 4.14958 4.47459C2.27458 6.42095 1.13822 8.8155 0.726854 11.6619C0.526854 13.0437 0.468672 13.3255 0.456854 20.3837C0.452309 22.7364 0.456854 25.8328 0.456854 29.986C0.456854 42.3132 0.470491 45.9178 0.529581 46.6178C0.734127 49.0814 1.12049 50.6314 1.93867 52.3269C3.50231 55.5723 6.48867 58.0087 10.0069 58.9178C11.225 59.2314 12.5705 59.4041 14.2978 59.486C15.0296 59.5178 22.4887 59.5405 29.9523 59.5405C37.4159 59.5405 44.8796 59.5314 45.5932 59.495C47.5932 59.401 48.7546 59.245 50.0387 58.9132C53.5796 57.9996 56.5114 55.5996 58.1069 52.3087C58.9091 50.6541 59.3159 49.045 59.5 46.71C59.54 46.201 59.5569 38.0841 59.5569 29.9782C59.5569 21.871 59.5387 13.7691 59.4987 13.26C59.3123 10.8873 58.9055 9.29186 58.0773 7.6055C57.3978 6.22504 56.6432 5.19414 55.5478 4.14004C53.5928 2.27277 51.2019 1.13641 48.3528 0.725499C46.9723 0.525953 46.6973 0.466863 39.6337 0.45459H30.0155Z" fill="url(#paint1_radial_170_5)"/>
<path d="M30.0018 8.18176C24.0763 8.18176 23.3327 8.20767 21.0054 8.31358C18.6827 8.41994 17.0972 8.78767 15.7099 9.32722C14.2749 9.88449 13.0577 10.6299 11.8449 11.8431C10.6313 13.0559 9.88585 14.2731 9.32676 15.7077C8.78585 17.0954 8.41767 18.6813 8.31313 21.0031C8.20904 23.3304 8.18176 24.0745 8.18176 29.9999C8.18176 35.9254 8.20813 36.6668 8.31358 38.994C8.4204 41.3168 8.78813 42.9022 9.32722 44.2895C9.88494 45.7245 10.6304 46.9418 11.8436 48.1545C13.0559 49.3681 14.2731 50.1154 15.7072 50.6727C17.0954 51.2122 18.6813 51.5799 21.0036 51.6863C23.3309 51.7922 24.074 51.8181 29.999 51.8181C35.9249 51.8181 36.6663 51.7922 38.9936 51.6863C41.3163 51.5799 42.9036 51.2122 44.2918 50.6727C45.7263 50.1154 46.9418 49.3681 48.154 48.1545C49.3677 46.9418 50.1131 45.7245 50.6722 44.2899C51.2086 42.9022 51.5768 41.3163 51.6859 38.9945C51.7904 36.6672 51.8177 35.9254 51.8177 29.9999C51.8177 24.0745 51.7904 23.3309 51.6859 21.0036C51.5768 18.6809 51.2086 17.0954 50.6722 15.7081C50.1131 14.2731 49.3677 13.0559 48.154 11.8431C46.9404 10.6295 45.7268 9.88404 44.2904 9.32722C42.8995 8.78767 41.3131 8.41994 38.9904 8.31358C36.6631 8.20767 35.9222 8.18176 29.9949 8.18176H30.0018ZM28.0445 12.1136C28.6254 12.1127 29.2736 12.1136 30.0018 12.1136C35.8272 12.1136 36.5177 12.1345 38.8181 12.239C40.9454 12.3363 42.0999 12.6918 42.869 12.9904C43.8872 13.3859 44.6131 13.8586 45.3763 14.6222C46.1399 15.3859 46.6127 16.1131 47.009 17.1313C47.3077 17.8995 47.6636 19.054 47.7604 21.1813C47.8649 23.4813 47.8877 24.1722 47.8877 29.9949C47.8877 35.8177 47.8649 36.5086 47.7604 38.8086C47.6631 40.9359 47.3077 42.0904 47.009 42.8586C46.6136 43.8768 46.1399 44.6018 45.3763 45.3649C44.6127 46.1286 43.8877 46.6013 42.869 46.9968C42.1009 47.2968 40.9454 47.6513 38.8181 47.7486C36.5181 47.8531 35.8272 47.8759 30.0018 47.8759C24.1759 47.8759 23.4854 47.8531 21.1854 47.7486C19.0581 47.6504 17.9036 47.2949 17.134 46.9963C16.1159 46.6009 15.3886 46.1281 14.6249 45.3645C13.8613 44.6009 13.3886 43.8754 12.9922 42.8568C12.6936 42.0886 12.3377 40.934 12.2409 38.8068C12.1363 36.5068 12.1154 35.8159 12.1154 29.9895C12.1154 24.1631 12.1363 23.4759 12.2409 21.1759C12.3381 19.0486 12.6936 17.894 12.9922 17.1249C13.3877 16.1068 13.8613 15.3795 14.6249 14.6159C15.3886 13.8522 16.1159 13.3795 17.134 12.9831C17.9031 12.6831 19.0581 12.3286 21.1854 12.2309C23.1981 12.1399 23.9781 12.1127 28.0445 12.1081V12.1136ZM41.6481 15.7363C40.2027 15.7363 39.0299 16.9077 39.0299 18.3536C39.0299 19.799 40.2027 20.9718 41.6481 20.9718C43.0936 20.9718 44.2663 19.799 44.2663 18.3536C44.2663 16.9081 43.0936 15.7354 41.6481 15.7354V15.7363ZM30.0018 18.7954C23.814 18.7954 18.7972 23.8122 18.7972 29.9999C18.7972 36.1877 23.814 41.2022 30.0018 41.2022C36.1895 41.2022 41.2045 36.1877 41.2045 29.9999C41.2045 23.8122 36.189 18.7954 30.0013 18.7954H30.0018ZM30.0018 22.7272C34.0181 22.7272 37.2745 25.9831 37.2745 29.9999C37.2745 34.0163 34.0181 37.2727 30.0018 37.2727C25.9849 37.2727 22.729 34.0163 22.729 29.9999C22.729 25.9831 25.9849 22.7272 30.0018 22.7272V22.7272Z" fill="white"/>
<defs>
<radialGradient id="paint0_radial_170_5" cx="0" cy="0" r="1" gradientUnits="userSpaceOnUse" gradientTransform="translate(16.1539 64.0914) rotate(-90) scale(58.5585 54.4789)">
<stop stop-color="#FFDD55"/>
<stop offset="0.1" stop-color="#FFDD55"/>
<stop offset="0.5" stop-color="#FF543E"/>
<stop offset="1" stop-color="#C837AB"/>
</radialGradient>
<radialGradient id="paint1_radial_170_5" cx="0" cy="0" r="1" gradientUnits="userSpaceOnUse" gradientTransform="translate(-9.44507 4.71104) rotate(78.6776) scale(26.1762 107.926)">
<stop stop-color="#3771C8"/>
<stop offset="0.128" stop-color="#3771C8"/>
<stop offset="1" stop-color="#6600FF" stop-opacity="0"/>
</radialGradient>
</defs>
</svg>
