<svg width="4486" height="360" viewBox="0 0 4486 360" fill="none" xmlns="http://www.w3.org/2000/svg">
<path d="M11.5 355C7.83333 355 5 353.667 3 351C1 348.333 0.333334 345.167 1 341.5L69.5 18.5C70.1667 14.8333 72.1667 11.6667 75.5 8.99998C78.8333 6.33331 82.3333 4.99998 86 4.99998H234C282 4.99998 317.167 15.8333 339.5 37.5C361.833 59.1666 369 88.8333 361 126.5C356.333 148.833 347.167 168.333 333.5 185C319.833 201.333 304.167 214.5 286.5 224.5L323.5 338.5C323.833 339.5 324 340.333 324 341C324.333 341.667 324.333 342.667 324 344C323.333 347 321.667 349.667 319 352C316.333 354 313.5 355 310.5 355H208C201.333 355 196.667 353.333 194 350C191.667 346.667 190.167 343.833 189.5 341.5L167 246H146.5L126 341.5C125.333 345.167 123.333 348.333 120 351C116.667 353.667 113.167 355 109.5 355H11.5ZM166.5 151H203C210.667 151 217 148.5 222 143.5C227 138.167 230.167 132.167 231.5 125.5C232.833 118.833 232.333 112.667 230 107C227.667 101 222.333 98 214 98H177.5L166.5 151ZM365.34 355C361.673 355 358.673 353.667 356.34 351C354.34 348.333 353.673 345.167 354.34 341.5L423.34 18.5C424.007 14.8333 425.84 11.6667 428.84 8.99998C432.173 6.33331 435.673 4.99998 439.34 4.99998H695.84C699.507 4.99998 702.34 6.33331 704.34 8.99998C706.673 11.6667 707.507 14.8333 706.84 18.5L691.84 89C691.173 92.6667 689.173 95.8333 685.84 98.5C682.507 101.167 679.007 102.5 675.34 102.5H525.34L518.34 134H657.34C661.007 134 663.84 135.333 665.84 138C668.173 140.667 669.007 143.833 668.34 147.5L654.34 212.5C653.673 216.167 651.673 219.333 648.34 222C645.007 224.667 641.507 226 637.84 226H498.84L492.34 257.5H646.34C650.007 257.5 652.84 258.833 654.84 261.5C656.84 264.167 657.507 267.333 656.84 271L641.84 341.5C641.173 345.167 639.173 348.333 635.84 351C632.84 353.667 629.507 355 625.84 355H365.34ZM698.348 355C694.681 355 691.681 353.667 689.348 351C687.348 348.333 686.681 345.167 687.348 341.5L756.348 18.5C757.014 14.8333 758.848 11.6667 761.848 8.99998C765.181 6.33331 768.681 4.99998 772.348 4.99998H913.848C935.181 4.99998 954.848 7.49997 972.848 12.5C991.181 17.5 1006.68 25.1667 1019.35 35.5C1032.35 45.5 1041.51 58.1667 1046.85 73.5C1052.18 88.8333 1052.68 106.833 1048.35 127.5C1039.68 168.833 1021.85 199 994.848 218C967.848 236.667 930.514 246 882.848 246H837.848L817.348 341.5C816.681 345.167 814.681 348.333 811.348 351C808.348 353.667 805.014 355 801.348 355H698.348ZM854.848 153.5H889.848C895.181 153.5 900.681 151.5 906.348 147.5C912.348 143.167 916.514 136.167 918.848 126.5C919.848 122.167 920.014 117.833 919.348 113.5C919.014 109.167 917.514 105.5 914.848 102.5C912.181 99.5 907.848 98 901.848 98H866.848L854.848 153.5ZM1050.89 355C1047.22 355 1044.22 353.667 1041.89 351C1039.89 348.333 1039.22 345.167 1039.89 341.5L1108.89 18.5C1109.55 14.8333 1111.39 11.6667 1114.39 8.99998C1117.72 6.33331 1121.22 4.99998 1124.89 4.99998H1381.39C1385.05 4.99998 1387.89 6.33331 1389.89 8.99998C1392.22 11.6667 1393.05 14.8333 1392.39 18.5L1377.39 89C1376.72 92.6667 1374.72 95.8333 1371.39 98.5C1368.05 101.167 1364.55 102.5 1360.89 102.5H1210.89L1203.89 134H1342.89C1346.55 134 1349.39 135.333 1351.39 138C1353.72 140.667 1354.55 143.833 1353.89 147.5L1339.89 212.5C1339.22 216.167 1337.22 219.333 1333.89 222C1330.55 224.667 1327.05 226 1323.39 226H1184.39L1177.89 257.5H1331.89C1335.55 257.5 1338.39 258.833 1340.39 261.5C1342.39 264.167 1343.05 267.333 1342.39 271L1327.39 341.5C1326.72 345.167 1324.72 348.333 1321.39 351C1318.39 353.667 1315.05 355 1311.39 355H1050.89ZM1383.89 355C1380.23 355 1377.23 353.667 1374.89 351C1372.89 348.333 1372.23 345.167 1372.89 341.5L1441.89 18.5C1442.56 14.8333 1444.39 11.6667 1447.39 8.99998C1450.73 6.33331 1454.23 4.99998 1457.89 4.99998H1557.89C1561.56 4.99998 1564.39 6.33331 1566.39 8.99998C1568.73 11.6667 1569.56 14.8333 1568.89 18.5L1518.89 252.5H1657.39C1661.06 252.5 1663.89 253.833 1665.89 256.5C1667.89 259.167 1668.56 262.333 1667.89 266L1651.89 341.5C1651.23 345.167 1649.23 348.333 1645.89 351C1642.89 353.667 1639.56 355 1635.89 355H1383.89ZM1695.42 355C1691.75 355 1688.75 353.667 1686.42 351C1684.42 348.333 1683.75 345.167 1684.42 341.5L1753.42 18.5C1754.08 14.8333 1755.92 11.6667 1758.92 8.99998C1762.25 6.33331 1765.75 4.99998 1769.42 4.99998H1871.42C1875.08 4.99998 1877.92 6.33331 1879.92 8.99998C1882.25 11.6667 1883.08 14.8333 1882.42 18.5L1813.42 341.5C1812.75 345.167 1810.75 348.333 1807.42 351C1804.42 353.667 1801.08 355 1797.42 355H1695.42ZM2020.01 360C1983.35 360 1953.18 355 1929.51 345C1905.85 335 1888.85 321.833 1878.51 305.5C1868.51 289.167 1865.18 271.833 1868.51 253.5C1869.18 250.5 1870.68 248 1873.01 246C1875.68 243.667 1878.51 242.5 1881.51 242.5H1976.51C1981.85 242.5 1985.68 243.333 1988.01 245C1990.68 246.333 1993.51 248.333 1996.51 251C1999.18 253.333 2002.01 255.5 2005.01 257.5C2008.35 259.167 2012.18 260.5 2016.51 261.5C2020.85 262.167 2025.68 262.5 2031.01 262.5C2042.35 262.5 2051.68 261.333 2059.01 259C2066.35 256.333 2070.51 252.833 2071.51 248.5C2072.51 244.5 2071.35 241.167 2068.01 238.5C2064.68 235.833 2058.51 233.5 2049.51 231.5C2040.51 229.167 2028.01 227 2012.01 225C1986.35 221.333 1964.85 214.667 1947.51 205C1930.18 195 1917.85 181.833 1910.51 165.5C1903.51 149.167 1902.51 130 1907.51 108C1914.51 74 1932.51 47.5 1961.51 28.5C1990.51 9.49998 2027.68 -1.90735e-05 2073.01 -1.90735e-05C2095.68 -1.90735e-05 2116.18 3.33331 2134.51 9.99997C2153.18 16.3333 2169.01 24.8333 2182.01 35.5C2195.35 45.8333 2205.18 57 2211.51 69C2217.85 81 2220.01 92.5 2218.01 103.5C2217.68 106.5 2216.18 109.167 2213.51 111.5C2210.85 113.5 2208.18 114.5 2205.51 114.5H2105.51C2100.85 114.5 2097.18 113.833 2094.51 112.5C2092.18 111.167 2089.68 109.167 2087.01 106.5C2085.68 104.833 2083.01 103 2079.01 101C2075.01 98.6666 2069.51 97.5 2062.51 97.5C2054.18 97.5 2047.85 98.8333 2043.51 101.5C2039.18 103.833 2036.51 107.167 2035.51 111.5C2034.85 114.5 2035.68 117.333 2038.01 120C2040.68 122.667 2045.68 125 2053.01 127C2060.68 129 2071.85 131 2086.51 133C2119.18 137 2144.51 144 2162.51 154C2180.85 164 2193.01 177 2199.01 193C2205.01 208.667 2205.68 227.333 2201.01 249C2193.35 285.333 2174.35 313 2144.01 332C2113.68 350.667 2072.35 360 2020.01 360ZM2228.13 355C2224.47 355 2221.47 353.667 2219.13 351C2217.13 348.333 2216.47 345.167 2217.13 341.5L2286.13 18.5C2286.8 14.8333 2288.63 11.6667 2291.63 8.99998C2294.97 6.33331 2298.47 4.99998 2302.13 4.99998H2443.63C2464.97 4.99998 2484.63 7.49997 2502.63 12.5C2520.97 17.5 2536.47 25.1667 2549.13 35.5C2562.13 45.5 2571.3 58.1667 2576.63 73.5C2581.97 88.8333 2582.47 106.833 2578.13 127.5C2569.47 168.833 2551.63 199 2524.63 218C2497.63 236.667 2460.3 246 2412.63 246H2367.63L2347.13 341.5C2346.47 345.167 2344.47 348.333 2341.13 351C2338.13 353.667 2334.8 355 2331.13 355H2228.13ZM2384.63 153.5H2419.63C2424.97 153.5 2430.47 151.5 2436.13 147.5C2442.13 143.167 2446.3 136.167 2448.63 126.5C2449.63 122.167 2449.8 117.833 2449.13 113.5C2448.8 109.167 2447.3 105.5 2444.63 102.5C2441.97 99.5 2437.63 98 2431.63 98H2396.63L2384.63 153.5ZM2580.67 355C2577.01 355 2574.01 353.667 2571.67 351C2569.67 348.333 2569.01 345.167 2569.67 341.5L2638.67 18.5C2639.34 14.8333 2641.17 11.6667 2644.17 8.99998C2647.51 6.33331 2651.01 4.99998 2654.67 4.99998H2754.67C2758.34 4.99998 2761.17 6.33331 2763.17 8.99998C2765.51 11.6667 2766.34 14.8333 2765.67 18.5L2715.67 252.5H2854.17C2857.84 252.5 2860.67 253.833 2862.67 256.5C2864.67 259.167 2865.34 262.333 2864.67 266L2848.67 341.5C2848.01 345.167 2846.01 348.333 2842.67 351C2839.67 353.667 2836.34 355 2832.67 355H2580.67ZM3046.2 360C3024.86 360 3004.53 357.333 2985.2 352C2965.86 346.333 2949.03 338 2934.7 327C2920.7 315.667 2910.7 301.5 2904.7 284.5C2898.7 267.167 2898.2 246.667 2903.2 223L2946.7 18.5C2947.36 14.8333 2949.2 11.6667 2952.2 8.99998C2955.53 6.33331 2959.03 4.99998 2962.7 4.99998H3060.7C3064.36 4.99998 3067.2 6.33331 3069.2 8.99998C3071.53 11.6667 3072.36 14.8333 3071.7 18.5L3028.2 221C3025.53 233.333 3026.53 242.833 3031.2 249.5C3036.2 256.167 3044.86 259.5 3057.2 259.5C3069.53 259.5 3079.36 256.167 3086.7 249.5C3094.36 242.833 3099.53 233.333 3102.2 221L3145.7 18.5C3146.36 14.8333 3148.2 11.6667 3151.2 8.99998C3154.53 6.33331 3158.03 4.99998 3161.7 4.99998H3259.7C3263.36 4.99998 3266.2 6.33331 3268.2 8.99998C3270.53 11.6667 3271.36 14.8333 3270.7 18.5L3227.2 223C3217.2 270.333 3197.7 305 3168.7 327C3139.7 349 3098.86 360 3046.2 360ZM3405.75 360C3369.09 360 3338.92 355 3315.25 345C3291.59 335 3274.59 321.833 3264.25 305.5C3254.25 289.167 3250.92 271.833 3254.25 253.5C3254.92 250.5 3256.42 248 3258.75 246C3261.42 243.667 3264.25 242.5 3267.25 242.5H3362.25C3367.59 242.5 3371.42 243.333 3373.75 245C3376.42 246.333 3379.25 248.333 3382.25 251C3384.92 253.333 3387.75 255.5 3390.75 257.5C3394.09 259.167 3397.92 260.5 3402.25 261.5C3406.59 262.167 3411.42 262.5 3416.75 262.5C3428.09 262.5 3437.42 261.333 3444.75 259C3452.09 256.333 3456.25 252.833 3457.25 248.5C3458.25 244.5 3457.09 241.167 3453.75 238.5C3450.42 235.833 3444.25 233.5 3435.25 231.5C3426.25 229.167 3413.75 227 3397.75 225C3372.09 221.333 3350.59 214.667 3333.25 205C3315.92 195 3303.59 181.833 3296.25 165.5C3289.25 149.167 3288.25 130 3293.25 108C3300.25 74 3318.25 47.5 3347.25 28.5C3376.25 9.49998 3413.42 -1.90735e-05 3458.75 -1.90735e-05C3481.42 -1.90735e-05 3501.92 3.33331 3520.25 9.99997C3538.92 16.3333 3554.75 24.8333 3567.75 35.5C3581.09 45.8333 3590.92 57 3597.25 69C3603.59 81 3605.75 92.5 3603.75 103.5C3603.42 106.5 3601.92 109.167 3599.25 111.5C3596.59 113.5 3593.92 114.5 3591.25 114.5H3491.25C3486.59 114.5 3482.92 113.833 3480.25 112.5C3477.92 111.167 3475.42 109.167 3472.75 106.5C3471.42 104.833 3468.75 103 3464.75 101C3460.75 98.6666 3455.25 97.5 3448.25 97.5C3439.92 97.5 3433.59 98.8333 3429.25 101.5C3424.92 103.833 3422.25 107.167 3421.25 111.5C3420.59 114.5 3421.42 117.333 3423.75 120C3426.42 122.667 3431.42 125 3438.75 127C3446.42 129 3457.59 131 3472.25 133C3504.92 137 3530.25 144 3548.25 154C3566.59 164 3578.75 177 3584.75 193C3590.75 208.667 3591.42 227.333 3586.75 249C3579.09 285.333 3560.09 313 3529.75 332C3499.42 350.667 3458.09 360 3405.75 360ZM3607.88 355C3604.21 355 3601.37 353.667 3599.37 351C3597.04 348.333 3596.21 345.167 3596.87 341.5L3615.38 254.5C3616.04 250.833 3618.04 247.667 3621.38 245C3624.71 242.333 3628.21 241 3631.88 241H3718.88C3722.54 241 3725.38 242.333 3727.38 245C3729.38 247.667 3730.04 250.833 3729.38 254.5L3710.88 341.5C3710.21 345.167 3708.21 348.333 3704.88 351C3701.88 353.667 3698.54 355 3694.88 355H3607.88Z" fill="white"/>
<path d="M3775.66 355C3771.99 355 3769.16 353.667 3767.16 351C3765.16 348.333 3764.49 345.167 3765.16 341.5L3833.66 18.5C3834.33 14.8333 3836.33 11.6667 3839.66 8.99998C3842.99 6.33331 3846.49 4.99998 3850.16 4.99998H3998.16C4046.16 4.99998 4081.33 15.8333 4103.66 37.5C4125.99 59.1666 4133.16 88.8333 4125.16 126.5C4120.49 148.833 4111.33 168.333 4097.66 185C4083.99 201.333 4068.33 214.5 4050.66 224.5L4087.66 338.5C4087.99 339.5 4088.16 340.333 4088.16 341C4088.49 341.667 4088.49 342.667 4088.16 344C4087.49 347 4085.83 349.667 4083.16 352C4080.49 354 4077.66 355 4074.66 355H3972.16C3965.49 355 3960.83 353.333 3958.16 350C3955.83 346.667 3954.33 343.833 3953.66 341.5L3931.16 246H3910.66L3890.16 341.5C3889.49 345.167 3887.49 348.333 3884.16 351C3880.83 353.667 3877.33 355 3873.66 355H3775.66ZM3930.66 151H3967.16C3974.83 151 3981.16 148.5 3986.16 143.5C3991.16 138.167 3994.33 132.167 3995.66 125.5C3996.99 118.833 3996.49 112.667 3994.16 107C3991.83 101 3986.49 98 3978.16 98H3941.66L3930.66 151ZM4264 360C4246 360 4227.5 357.333 4208.5 352C4189.83 346.667 4172.83 338.833 4157.5 328.5C4142.17 317.833 4130.5 305 4122.5 290C4114.83 274.667 4112.83 257.167 4116.5 237.5C4117.17 234.5 4118.83 232 4121.5 230C4124.17 227.667 4127 226.5 4130 226.5H4232C4237.67 226.5 4241.5 227.833 4243.5 230.5C4245.83 232.833 4247.67 236.833 4249 242.5C4251 249.167 4253.5 254.167 4256.5 257.5C4259.83 260.833 4265.67 262.5 4274 262.5C4283 262.5 4290.67 259.667 4297 254C4303.67 248 4308.67 237.333 4312 222L4336.5 106.5H4188C4184.33 106.5 4181.5 105.167 4179.5 102.5C4177.5 99.8333 4176.83 96.6667 4177.5 93L4193.5 18.5C4194.17 14.8333 4196 11.6667 4199 8.99998C4202.33 6.33331 4205.83 4.99998 4209.5 4.99998H4474C4477.67 4.99998 4480.5 6.33331 4482.5 8.99998C4484.83 11.6667 4485.67 14.8333 4485 18.5L4440.5 226C4434.17 256.667 4423.5 282 4408.5 302C4393.5 321.667 4374 336.333 4350 346C4326.33 355.333 4297.67 360 4264 360Z" fill="#FF9900"/>
</svg>
