<svg width="161" height="64" viewBox="0 0 161 34" fill="none" xmlns="http://www.w3.org/2000/svg">
<circle cx="17" cy="17" r="16" transform="rotate(-90 17 17)" stroke="#FAB500" stroke-width="2"/>
<mask id="path-2-outside-1_204_13" maskUnits="userSpaceOnUse" x="5" y="0" width="14" height="24" fill="black">
<rect fill="white" x="5" width="14" height="24"/>
<path d="M17 2C13.8323 2 10.7459 3.00282 8.18322 4.86475L17 17V2Z"/>
</mask>
<path d="M17 2C13.8323 2 10.7459 3.00282 8.18322 4.86475L17 17V2Z" stroke="#475772" stroke-width="4" mask="url(#path-2-outside-1_204_13)"/>
<path d="M32 17C32 25.2843 25.2843 32 17 32C8.71573 32 2 25.2843 2 17C2 8.71573 8.71573 2 17 2C25.2843 2 32 8.71573 32 17Z" fill="#050F28"/>
<path d="M9.78234 20.7994C9.29465 20.7994 8.86378 20.713 8.48972 20.5402C8.11804 20.365 7.82803 20.1247 7.6197 19.8193C7.41136 19.5115 7.30838 19.1611 7.31075 18.7681C7.30838 18.4604 7.36875 18.1763 7.49185 17.9159C7.61496 17.6531 7.78305 17.4341 7.99612 17.2589C8.21155 17.0813 8.45185 16.9689 8.717 16.9215V16.8789C8.36899 16.789 8.092 16.5937 7.88603 16.293C7.68006 15.99 7.57827 15.6455 7.58063 15.2596C7.57827 14.8903 7.67178 14.56 7.86117 14.2688C8.05057 13.9776 8.31098 13.748 8.64242 13.5799C8.97623 13.4118 9.3562 13.3278 9.78234 13.3278C10.2037 13.3278 10.5802 13.4118 10.9116 13.5799C11.243 13.748 11.5035 13.9776 11.6928 14.2688C11.8846 14.56 11.9817 14.8903 11.984 15.2596C11.9817 15.6455 11.8763 15.99 11.668 16.293C11.462 16.5937 11.1886 16.789 10.8477 16.8789V16.9215C11.1105 16.9689 11.3472 17.0813 11.5579 17.2589C11.7686 17.4341 11.9367 17.6531 12.0622 17.9159C12.1876 18.1763 12.2516 18.4604 12.2539 18.7681C12.2516 19.1611 12.145 19.5115 11.9343 19.8193C11.726 20.1247 11.436 20.365 11.0643 20.5402C10.695 20.713 10.2677 20.7994 9.78234 20.7994ZM9.78234 20.0181C10.1114 20.0181 10.3955 19.9649 10.6346 19.8583C10.8737 19.7518 11.0584 19.6015 11.1886 19.4073C11.3188 19.2132 11.3851 18.9859 11.3875 18.7255C11.3851 18.4509 11.3141 18.2082 11.1744 17.9975C11.0347 17.7868 10.8441 17.6211 10.6027 17.5004C10.3635 17.3796 10.0901 17.3193 9.78234 17.3193C9.47221 17.3193 9.19522 17.3796 8.95137 17.5004C8.70989 17.6211 8.51932 17.7868 8.37964 17.9975C8.24233 18.2082 8.17486 18.4509 8.17722 18.7255C8.17486 18.9859 8.23759 19.2132 8.36543 19.4073C8.49564 19.6015 8.68149 19.7518 8.92296 19.8583C9.16444 19.9649 9.4509 20.0181 9.78234 20.0181ZM9.78234 16.5664C10.0428 16.5664 10.2736 16.5143 10.4748 16.4102C10.6784 16.306 10.8382 16.1604 10.9542 15.9734C11.0702 15.7864 11.1294 15.5674 11.1318 15.3164C11.1294 15.0702 11.0714 14.856 10.9578 14.6737C10.8441 14.489 10.6867 14.347 10.4855 14.2475C10.2842 14.1457 10.0499 14.0948 9.78234 14.0948C9.51008 14.0948 9.27216 14.1457 9.06856 14.2475C8.86496 14.347 8.70753 14.489 8.59626 14.6737C8.48499 14.856 8.43054 15.0702 8.43291 15.3164C8.43054 15.5674 8.48617 15.7864 8.59981 15.9734C8.71581 16.1604 8.87561 16.306 9.07921 16.4102C9.28281 16.5143 9.51719 16.5664 9.78234 16.5664ZM15.8876 20.7994C15.471 20.7994 15.0957 20.7165 14.7619 20.5508C14.4281 20.3851 14.1606 20.1578 13.9594 19.869C13.7581 19.5802 13.648 19.2511 13.6291 18.8818H14.4814C14.5145 19.2108 14.6637 19.4831 14.9288 19.6985C15.1963 19.9116 15.5159 20.0181 15.8876 20.0181C16.1859 20.0181 16.4511 19.9483 16.6831 19.8086C16.9175 19.6689 17.1009 19.4772 17.2335 19.2333C17.3685 18.9871 17.4359 18.7089 17.4359 18.3988C17.4359 18.0816 17.3661 17.7987 17.2264 17.5501C17.0891 17.2991 16.8997 17.1015 16.6582 16.9571C16.4167 16.8126 16.1409 16.7393 15.8308 16.7369C15.6083 16.7345 15.3798 16.7688 15.1454 16.8399C14.9111 16.9085 14.7181 16.9973 14.5666 17.1062L13.7427 17.0068L14.1831 13.4272H17.9615V14.2085H14.9217L14.666 16.3534H14.7087C14.8578 16.235 15.0448 16.1367 15.2697 16.0586C15.4946 15.9805 15.729 15.9414 15.9729 15.9414C16.4179 15.9414 16.8145 16.048 17.1625 16.261C17.5129 16.4717 17.7875 16.7606 17.9864 17.1275C18.1876 17.4945 18.2882 17.9135 18.2882 18.3846C18.2882 18.8486 18.184 19.2629 17.9757 19.6275C17.7697 19.9897 17.4856 20.2762 17.1234 20.4869C16.7612 20.6952 16.3493 20.7994 15.8876 20.7994ZM23.4063 19.3363V18.9528C23.4063 18.6876 23.4607 18.445 23.5696 18.2248C23.6809 18.0023 23.8419 17.8247 24.0526 17.6921C24.2656 17.5572 24.5237 17.4897 24.8267 17.4897C25.1345 17.4897 25.3925 17.5572 25.6009 17.6921C25.8092 17.8247 25.9666 18.0023 26.0732 18.2248C26.1797 18.445 26.233 18.6876 26.233 18.9528V19.3363C26.233 19.6015 26.1785 19.8453 26.0696 20.0678C25.9631 20.288 25.8045 20.4656 25.5938 20.6005C25.3854 20.7331 25.1298 20.7994 24.8267 20.7994C24.519 20.7994 24.2597 20.7331 24.049 20.6005C23.8383 20.4656 23.6785 20.288 23.5696 20.0678C23.4607 19.8453 23.4063 19.6015 23.4063 19.3363ZM24.1307 18.9528V19.3363C24.1307 19.5565 24.1828 19.7542 24.287 19.9294C24.3911 20.1022 24.571 20.1886 24.8267 20.1886C25.0753 20.1886 25.2505 20.1022 25.3523 19.9294C25.4565 19.7542 25.5085 19.5565 25.5085 19.3363V18.9528C25.5085 18.7326 25.4588 18.5361 25.3594 18.3633C25.26 18.1881 25.0824 18.1005 24.8267 18.1005C24.5781 18.1005 24.3994 18.1881 24.2905 18.3633C24.184 18.5361 24.1307 18.7326 24.1307 18.9528ZM19.7841 15.1744V14.7909C19.7841 14.5257 19.8386 14.283 19.9475 14.0629C20.0587 13.8403 20.2197 13.6628 20.4304 13.5302C20.6435 13.3953 20.9015 13.3278 21.2046 13.3278C21.5123 13.3278 21.7704 13.3953 21.9787 13.5302C22.187 13.6628 22.3445 13.8403 22.451 14.0629C22.5576 14.283 22.6108 14.5257 22.6108 14.7909V15.1744C22.6108 15.4395 22.5564 15.6834 22.4475 15.9059C22.3409 16.1261 22.1823 16.3036 21.9716 16.4386C21.7633 16.5712 21.5076 16.6375 21.2046 16.6375C20.8968 16.6375 20.6376 16.5712 20.4269 16.4386C20.2162 16.3036 20.0564 16.1261 19.9475 15.9059C19.8386 15.6834 19.7841 15.4395 19.7841 15.1744ZM20.5085 14.7909V15.1744C20.5085 15.3946 20.5606 15.5922 20.6648 15.7674C20.769 15.9402 20.9489 16.0267 21.2046 16.0267C21.4531 16.0267 21.6283 15.9402 21.7301 15.7674C21.8343 15.5922 21.8864 15.3946 21.8864 15.1744V14.7909C21.8864 14.5707 21.8367 14.3742 21.7372 14.2014C21.6378 14.0262 21.4602 13.9386 21.2046 13.9386C20.956 13.9386 20.7772 14.0262 20.6683 14.2014C20.5618 14.3742 20.5085 14.5707 20.5085 14.7909ZM20.054 20.7L25.054 13.4272H25.8637L20.8637 20.7H20.054Z" fill="#FAB500"/>
<path d="M47.6087 6.7524C47.9794 6.02355 49.0206 6.02355 49.3913 6.7524L52.0084 11.8977C52.1537 12.1834 52.4273 12.3822 52.744 12.4321L58.4461 13.3311C59.2539 13.4585 59.5756 14.4487 58.997 15.0265L54.9123 19.1055C54.6854 19.332 54.5809 19.6536 54.6313 19.9702L55.5384 25.6711C55.6669 26.4786 54.8245 27.0907 54.0962 26.7189L48.9546 24.0945C48.6691 23.9488 48.3309 23.9488 48.0454 24.0945L42.9038 26.7189C42.1755 27.0907 41.3331 26.4786 41.4616 25.6711L42.3687 19.9702C42.4191 19.6536 42.3146 19.332 42.0877 19.1055L38.003 15.0265C37.4244 14.4487 37.7461 13.4585 38.5539 13.3311L44.256 12.4321C44.5727 12.3822 44.8463 12.1834 44.9916 11.8977L47.6087 6.7524Z" fill="#FAB500"/>
<path d="M72.6087 6.7524C72.9794 6.02355 74.0206 6.02355 74.3913 6.7524L77.0084 11.8977C77.1537 12.1834 77.4273 12.3822 77.744 12.4321L83.4461 13.3311C84.2539 13.4585 84.5756 14.4487 83.997 15.0265L79.9123 19.1055C79.6854 19.332 79.5809 19.6536 79.6313 19.9702L80.5384 25.6711C80.6669 26.4786 79.8245 27.0907 79.0962 26.7189L73.9546 24.0945C73.6691 23.9488 73.3309 23.9488 73.0454 24.0945L67.9038 26.7189C67.1755 27.0907 66.3331 26.4786 66.4616 25.6711L67.3687 19.9702C67.4191 19.6536 67.3146 19.332 67.0877 19.1055L63.003 15.0265C62.4244 14.4487 62.7461 13.4585 63.5539 13.3311L69.256 12.4321C69.5727 12.3822 69.8463 12.1834 69.9916 11.8977L72.6087 6.7524Z" fill="#FAB500"/>
<path d="M97.6087 6.7524C97.9794 6.02355 99.0206 6.02355 99.3913 6.7524L102.008 11.8977C102.154 12.1834 102.427 12.3822 102.744 12.4321L108.446 13.3311C109.254 13.4585 109.576 14.4487 108.997 15.0265L104.912 19.1055C104.685 19.332 104.581 19.6536 104.631 19.9702L105.538 25.6711C105.667 26.4786 104.825 27.0907 104.096 26.7189L98.9546 24.0945C98.6691 23.9488 98.3309 23.9488 98.0454 24.0945L92.9038 26.7189C92.1755 27.0907 91.3331 26.4786 91.4616 25.6711L92.3687 19.9702C92.4191 19.6536 92.3146 19.332 92.0877 19.1055L88.003 15.0265C87.4244 14.4487 87.7461 13.4585 88.5539 13.3311L94.256 12.4321C94.5727 12.3822 94.8463 12.1834 94.9916 11.8977L97.6087 6.7524Z" fill="#FAB500"/>
<path d="M122.609 6.7524C122.979 6.02355 124.021 6.02355 124.391 6.7524L127.008 11.8977C127.154 12.1834 127.427 12.3822 127.744 12.4321L133.446 13.3311C134.254 13.4585 134.576 14.4487 133.997 15.0265L129.912 19.1055C129.685 19.332 129.581 19.6536 129.631 19.9702L130.538 25.6711C130.667 26.4786 129.825 27.0907 129.096 26.7189L123.955 24.0945C123.669 23.9488 123.331 23.9488 123.045 24.0945L117.904 26.7189C117.175 27.0907 116.333 26.4786 116.462 25.6711L117.369 19.9702C117.419 19.6536 117.315 19.332 117.088 19.1055L113.003 15.0265C112.424 14.4487 112.746 13.4585 113.554 13.3311L119.256 12.4321C119.573 12.3822 119.846 12.1834 119.992 11.8977L122.609 6.7524Z" fill="#FAB500"/>
<path d="M147.609 6.7524C147.979 6.02355 149.021 6.02355 149.391 6.7524L152.008 11.8977C152.154 12.1834 152.427 12.3822 152.744 12.4321L158.446 13.3311C159.254 13.4585 159.576 14.4487 158.997 15.0265L154.912 19.1055C154.685 19.332 154.581 19.6536 154.631 19.9702L155.538 25.6711C155.667 26.4786 154.825 27.0907 154.096 26.7189L148.955 24.0945C148.669 23.9488 148.331 23.9488 148.045 24.0945L142.904 26.7189C142.175 27.0907 141.333 26.4786 141.462 25.6711L142.369 19.9702C142.419 19.6536 142.315 19.332 142.088 19.1055L138.003 15.0265C137.424 14.4487 137.746 13.4585 138.554 13.3311L144.256 12.4321C144.573 12.3822 144.846 12.1834 144.992 11.8977L147.609 6.7524Z" fill="#FAB500"/>
</svg>
