<svg width="35" height="35" viewBox="0 0 50 50" fill="none" xmlns="http://www.w3.org/2000/svg">
<path d="M25 0C11.1928 0 0 11.1928 0 25C0 38.8072 11.1928 50 25 50C38.8072 50 50 38.8072 50 25C50 11.1928 38.8072 0 25 0Z" fill="#40B3E0"/>
<path d="M37.1646 14.3809L32.6992 36.8944C32.6992 36.8944 32.0748 38.4557 30.3574 37.7063L20.0531 29.8063L16.3062 27.9953L9.99882 25.8719C9.99882 25.8719 9.03085 25.5285 8.9371 24.7791C8.84335 24.0297 10.0301 23.6239 10.0301 23.6239L35.1035 13.7879C35.1035 13.7879 37.1644 12.8824 37.1644 14.3813" fill="white"/>
<path d="M19.2614 36.6413C19.2614 36.6413 18.9606 36.6131 18.5856 35.4264C18.2112 34.2399 16.3063 27.995 16.3063 27.995L31.4504 18.3778C31.4504 18.3778 32.3248 17.8469 32.2936 18.3778C32.2936 18.3778 32.4496 18.4715 31.9811 18.9086C31.5129 19.3459 20.0846 29.6188 20.0846 29.6188" fill="#D2E5F1"/>
<path d="M24.0041 32.835L19.9285 36.551C19.9285 36.551 19.6098 36.7928 19.2614 36.6412L20.0418 29.7389" fill="#B5CFE4"/>
</svg>
