<svg width="512" height="361" viewBox="0 0 512 361" fill="none" xmlns="http://www.w3.org/2000/svg">
<path d="M501.291 56.32C495.403 34.1547 478.059 16.6827 456.021 10.752C416.107 3.8147e-06 256 0 256 0C256 0 95.8933 3.8147e-06 55.9573 10.752C33.9413 16.6827 16.5973 34.1333 10.7093 56.32C0 96.512 0 180.352 0 180.352C0 180.352 0 264.192 10.7093 304.384C16.5973 326.549 33.9413 344.021 55.9787 349.952C95.8933 360.704 256 360.704 256 360.704C256 360.704 416.107 360.704 456.043 349.952C478.059 344.021 495.403 326.571 501.312 304.384C512 264.192 512 180.352 512 180.352C512 180.352 512 96.512 501.291 56.32ZM203.648 256.491V104.213L337.451 180.352L203.648 256.491Z" fill="black"/>
</svg>
