<svg width="35" height="35" viewBox="0 0 50 50" fill="none" xmlns="http://www.w3.org/2000/svg">
<path d="M49.9976 6.08852C48.1254 7.10449 46.1397 7.77137 44.1063 8.06699C46.2243 6.51197 47.8505 4.04953 48.6162 1.11555C46.6029 2.57916 44.4001 3.61036 42.103 4.1646C40.2319 1.72273 37.5664 0.196655 34.6161 0.196655C28.9514 0.196655 24.3587 5.82249 24.3587 12.7612C24.3587 13.7462 24.4495 14.705 24.6243 15.6249C16.0997 15.1007 8.54184 10.0986 3.48277 2.49666C2.60004 4.3524 2.09423 6.51101 2.09423 8.8134C2.09423 13.1727 3.90519 17.0184 6.65726 19.2718C5.02841 19.2093 3.4354 18.6704 2.01123 17.7C2.01064 17.7526 2.01064 17.8053 2.01064 17.8581C2.01064 23.9459 5.54624 29.0244 10.2384 30.1787C8.72793 30.6819 7.1436 30.7556 5.60639 30.394C6.91153 35.3859 10.6996 39.0184 15.1879 39.1201C11.6775 42.49 7.25466 44.4988 2.44927 44.4988C1.62123 44.4988 0.804902 44.4392 0.00244141 44.3232C4.54165 47.8883 9.93311 49.9684 15.7255 49.9684C34.5922 49.9684 44.909 30.8223 44.909 14.2184C44.909 13.6734 44.8992 13.1316 44.8793 12.5928C46.8874 10.8146 48.6206 8.612 49.9976 6.08852" fill="#55ACEE"/>
</svg>
